<svg width="63" height="64" viewBox="0 0 63 64" fill="none" xmlns="http://www.w3.org/2000/svg">
<g filter="url(#filter0_d_1_326)">
<rect x="4" y="0.0493164" width="55" height="55" rx="27.5" fill="#FFECEC"/>
<path d="M39.5 18.5493H23.5C22.9696 18.5493 22.4609 18.76 22.0858 19.1351C21.7107 19.5102 21.5 20.0189 21.5 20.5493V24.5493C21.5 25.0797 21.7107 25.5885 22.0858 25.9635C22.4609 26.3386 22.9696 26.5493 23.5 26.5493H39.5C40.0304 26.5493 40.5391 26.3386 40.9142 25.9635C41.2893 25.5885 41.5 25.0797 41.5 24.5493V20.5493C41.5 20.0189 41.2893 19.5102 40.9142 19.1351C40.5391 18.76 40.0304 18.5493 39.5 18.5493ZM34.5 22.5493C34.5 23.1016 34.0523 23.5493 33.5 23.5493C32.9477 23.5493 32.5 23.1016 32.5 22.5493C32.5 21.997 32.9477 21.5493 33.5 21.5493C34.0523 21.5493 34.5 21.997 34.5 22.5493ZM38.5 22.5493C38.5 23.1016 38.0523 23.5493 37.5 23.5493C36.9477 23.5493 36.5 23.1016 36.5 22.5493C36.5 21.997 36.9477 21.5493 37.5 21.5493C38.0523 21.5493 38.5 21.997 38.5 22.5493ZM39.5 28.5493H23.5C22.9696 28.5493 22.4609 28.76 22.0858 29.1351C21.7107 29.5102 21.5 30.0189 21.5 30.5493V34.5493C21.5 35.0798 21.7107 35.5885 22.0858 35.9635C22.4609 36.3386 22.9696 36.5493 23.5 36.5493H39.5C40.0304 36.5493 40.5391 36.3386 40.9142 35.9635C41.2893 35.5885 41.5 35.0798 41.5 34.5493V30.5493C41.5 30.0189 41.2893 29.5102 40.9142 29.1351C40.5391 28.76 40.0304 28.5493 39.5 28.5493ZM34.5 32.5493C34.5 33.1016 34.0523 33.5493 33.5 33.5493C32.9477 33.5493 32.5 33.1016 32.5 32.5493C32.5 31.997 32.9477 31.5493 33.5 31.5493C34.0523 31.5493 34.5 31.997 34.5 32.5493ZM38.5 32.5493C38.5 33.1016 38.0523 33.5493 37.5 33.5493C36.9477 33.5493 36.5 33.1016 36.5 32.5493C36.5 31.997 36.9477 31.5493 37.5 31.5493C38.0523 31.5493 38.5 31.997 38.5 32.5493Z" fill="#F53838"/>
</g>
<defs>
<filter id="filter0_d_1_326" x="0" y="0.0493164" width="63" height="63" filterUnits="userSpaceOnUse" color-interpolation-filters="sRGB">
<feFlood flood-opacity="0" result="BackgroundImageFix"/>
<feColorMatrix in="SourceAlpha" type="matrix" values="0 0 0 0 0 0 0 0 0 0 0 0 0 0 0 0 0 0 127 0" result="hardAlpha"/>
<feOffset dy="4"/>
<feGaussianBlur stdDeviation="2"/>
<feComposite in2="hardAlpha" operator="out"/>
<feColorMatrix type="matrix" values="0 0 0 0 0 0 0 0 0 0 0 0 0 0 0 0 0 0 0.25 0"/>
<feBlend mode="normal" in2="BackgroundImageFix" result="effect1_dropShadow_1_326"/>
<feBlend mode="normal" in="SourceGraphic" in2="effect1_dropShadow_1_326" result="shape"/>
</filter>
</defs>
</svg>
